<?xml version="1.0" standalone="no"?>
<!DOCTYPE svg PUBLIC "-//W3C//DTD SVG 20010904//EN"
 "http://www.w3.org/TR/2001/REC-SVG-20010904/DTD/svg10.dtd">
<svg version="1.0" xmlns="http://www.w3.org/2000/svg"
 width="7730.000000pt" height="7730.000000pt" viewBox="0 0 7730.000000 7730.000000"
 preserveAspectRatio="xMidYMid meet">

<g transform="translate(0.000000,7730.000000) scale(0.100000,-0.100000)"
fill="#000000" stroke="none">
<path d="M58560 60394 c209 -25 317 -53 447 -114 238 -111 436 -312 535 -541
74 -174 106 -371 88 -554 -8 -84 -415 -3514 -1440 -12135 -350 -2942 -618
-5201 -910 -7655 -165 -1391 -302 -2541 -304 -2555 -2 -14 -14 -116 -27 -228
-19 -166 -26 -202 -37 -197 -12 4 -13 3 -2 -10 10 -12 10 -37 0 -130 -7 -63
-16 -113 -19 -111 -3 2 -7 -35 -8 -82 -2 -47 -7 -90 -12 -95 -5 -5 -7 -15 -5
-22 4 -11 -59 -567 -86 -760 -6 -38 -13 -97 -15 -130 -3 -33 -8 -68 -11 -78
-3 -9 -7 -45 -10 -80 -2 -34 -6 -73 -9 -87 -3 -14 -8 -59 -11 -100 -3 -41 -10
-89 -15 -106 -5 -18 -9 -36 -8 -40 1 -5 1 -31 0 -57 -1 -34 -4 -46 -13 -41 -7
4 -8 3 -4 -4 9 -16 -4 -183 -15 -177 -4 3 -11 0 -15 -6 -4 -8 -3 -9 4 -5 8 5
12 -1 12 -16 0 -18 -2 -20 -10 -8 -5 8 -10 11 -10 5 0 -5 4 -17 9 -25 6 -8 7
-18 4 -23 -3 -5 -6 -30 -8 -55 -5 -88 -17 -197 -21 -204 -3 -5 -7 -36 -10 -71
-2 -34 -6 -71 -8 -82 -3 -11 -5 -38 -5 -59 -1 -49 -7 -44 -16 12 -5 35 -3 42
7 36 7 -4 9 -3 5 1 -16 19 -36 13 -31 -8 13 -61 13 -79 -1 -73 -12 4 -13 2 -2
-16 9 -16 9 -22 0 -25 -7 -3 -13 -9 -13 -14 0 -16 20 1 31 25 7 15 8 6 4 -34
-2 -30 -5 -67 -5 -82 0 -16 -4 -28 -8 -28 -5 0 -7 15 -6 33 l3 32 -8 -30 c-4
-17 -3 -36 2 -42 6 -9 5 -19 -4 -30 -12 -14 -12 -16 0 -8 11 6 13 3 7 -16 -8
-24 -12 -74 -15 -156 -1 -33 -4 -41 -16 -37 -11 5 -15 -1 -15 -20 0 -14 -4
-26 -10 -26 -5 0 -10 -5 -10 -10 0 -20 25 -4 31 20 6 21 7 19 8 -12 0 -22 -4
-38 -10 -38 -7 0 -9 -10 -5 -25 4 -17 2 -25 -6 -25 -9 0 -8 -3 2 -10 12 -8 12
-10 -5 -10 -11 0 -15 -4 -10 -8 12 -8 14 -76 3 -79 -17 -6 -20 -2 -11 10 5 6
8 18 7 25 -1 6 -2 17 -3 22 -1 13 -31 13 -31 1 0 -5 6 -11 13 -14 6 -2 -12 -2
-40 1 -43 4 -53 2 -53 -11 0 -11 -18 -17 -80 -22 -58 -5 -80 -11 -80 -21 0
-10 -12 -14 -40 -14 -29 0 -40 -4 -40 -15 0 -11 -11 -15 -40 -15 -22 0 -40 -4
-40 -10 0 -5 -18 -10 -40 -10 -22 0 -40 -4 -40 -10 0 -5 -15 -10 -33 -10 -18
0 -50 -9 -72 -20 -22 -11 -52 -20 -67 -20 -15 0 -30 -4 -33 -10 -10 -16 -57
-12 -78 8 -11 9 -17 12 -14 5 4 -6 3 -14 -2 -17 -5 -4 -8 -21 -7 -39 1 -17 -2
-37 -7 -44 -4 -6 -9 -47 -10 -91 -1 -44 -6 -78 -10 -75 -4 2 -7 -10 -7 -29 1
-18 -3 -64 -10 -103 -6 -38 -10 -76 -9 -85 1 -8 -1 -27 -5 -42 -5 -18 -2 -34
10 -53 14 -21 15 -28 4 -38 -10 -9 -11 -9 -6 0 4 7 2 21 -4 30 -11 16 -11 16
-6 1 3 -10 1 -20 -4 -23 -6 -3 -8 -24 -7 -45 2 -21 0 -37 -5 -34 -5 3 -8 -7
-7 -23 0 -15 -3 -53 -6 -83 -4 -30 -8 -76 -9 -102 0 -27 -4 -48 -8 -48 -5 0
-8 -14 -8 -31 0 -16 4 -28 8 -25 5 3 9 -1 9 -9 0 -8 -5 -13 -11 -12 -6 1 -14
-31 -19 -77 -9 -76 -8 -80 14 -97 13 -10 20 -21 16 -25 -4 -4 -7 -2 -7 5 0 8
-6 11 -16 7 -8 -3 -12 -2 -9 4 3 6 1 10 -5 10 -13 0 -10 -62 5 -72 6 -5 3 -8
-7 -8 -11 0 -18 -8 -18 -21 0 -12 4 -17 11 -13 8 5 8 1 0 -14 -14 -26 -14 -32
0 -32 5 0 7 5 3 12 -5 7 -3 8 5 4 7 -5 10 -11 7 -14 -3 -3 1 -13 10 -23 12
-14 13 -18 2 -25 -7 -4 -10 -4 -6 1 10 11 -10 35 -29 35 -10 0 -14 -9 -12 -33
2 -18 0 -37 -3 -42 -4 -6 -9 -44 -13 -85 -3 -41 -8 -94 -10 -118 -4 -32 -2
-42 7 -37 7 4 5 0 -5 -8 -10 -8 -17 -19 -15 -23 2 -9 -9 -104 -19 -163 -4 -26
-3 -32 7 -26 10 6 11 4 4 -6 -13 -21 -14 -39 -1 -39 6 0 2 -6 -9 -14 -17 -13
-17 -18 -6 -36 8 -12 9 -19 3 -15 -6 3 -12 0 -13 -7 0 -7 -2 -24 -4 -38 -21
-190 -2126 -17876 -2135 -17930 -77 -505 -467 -911 -984 -1026 -38 -8 -128
-17 -200 -20 -119 -5 -855 65 -8870 846 -12379 1205 -12914 1257 -12970 1270
-90 19 -178 52 -265 96 -296 152 -503 437 -571 784 -32 163 -30 185 278 2727
159 1316 291 2395 294 2397 2 2 1608 -119 3568 -269 1960 -151 3568 -272 3572
-270 4 3 1062 -76 2351 -175 1288 -99 3871 -297 5738 -440 1867 -143 3685
-284 4040 -312 737 -60 880 -64 1010 -30 94 26 262 102 337 153 71 49 209 185
258 254 61 86 121 212 150 313 19 66 490 3628 1995 15102 1084 8258 2002
15254 2040 15545 38 292 121 925 185 1407 81 615 115 907 115 977 0 349 -210
838 -491 1145 -111 122 -261 222 -388 260 -86 25 -83 19 14 -31 73 -38 109
-66 191 -148 84 -83 108 -115 147 -191 73 -142 91 -222 91 -389 0 -128 -83
-772 -977 -7580 -538 -4092 -1083 -8243 -1212 -9225 -129 -982 -275 -2093
-324 -2470 -217 -1648 -1714 -13064 -1762 -13425 -16 -126 -38 -264 -49 -306
-55 -226 -194 -432 -390 -581 -85 -65 -264 -151 -370 -178 -181 -46 -7 -57
-4255 269 -2150 166 -3939 303 -3975 306 -36 3 -211 17 -390 30 -179 14 -352
27 -385 30 -33 3 -152 12 -265 20 -113 9 -225 17 -250 20 -25 2 -83 7 -130 10
-47 3 -105 8 -130 10 -25 2 -83 7 -130 10 -81 6 -256 19 -385 30 -33 3 -123
10 -200 15 -77 5 -162 12 -190 15 -27 2 -81 7 -120 10 -38 3 -2525 194 -5525
425 -3848 296 -5473 424 -5515 436 -192 51 -375 185 -483 353 -42 65 -98 189
-109 241 -3 17 -10 33 -16 37 -13 8 -1 -118 19 -195 80 -308 405 -704 765
-930 90 -57 241 -127 314 -146 33 -8 223 -28 422 -43 l363 -27 0 -26 c0 -14
-153 -1296 -340 -2849 -216 -1797 -340 -2858 -340 -2916 0 -542 375 -1020 895
-1140 53 -13 1852 -195 4340 -440 1499 -148 4150 -411 11275 -1121 l7485 -746
330 5 c350 6 463 16 675 63 177 39 351 101 510 181 426 214 700 538 797 938
16 69 102 763 278 2250 140 1183 259 2179 265 2215 5 36 82 673 170 1415 381
3202 444 3732 535 4500 52 446 109 920 125 1055 23 185 524 4410 713 6005 14
116 432 3639 931 7830 498 4191 928 7811 956 8045 28 234 69 576 91 760 21
184 82 697 134 1140 53 443 111 933 130 1090 19 157 181 1518 360 3025 633
5331 673 5664 801 6730 133 1100 136 1155 91 1326 -79 300 -300 551 -637 723
-200 103 -384 162 -655 210 -190 34 -301 45 -512 50 -98 3 -162 3 -143 0z
m-2047 -27367 c4 3 7 1 7 -5 0 -7 -4 -12 -10 -12 -5 0 -13 -1 -17 -2 -3 -2 -7
8 -8 21 -2 21 0 22 10 8 7 -9 15 -14 18 -10z m-773 -153 c0 -3 -7 -1 -15 6 -8
7 -15 17 -15 22 0 5 7 3 15 -6 8 -8 15 -18 15 -22z m5 -24 c3 -6 -1 -7 -9 -4
-18 7 -21 14 -7 14 6 0 13 -4 16 -10z m750 -22 c-7 -32 -13 -32 -11 1 0 16 4
27 8 25 4 -2 5 -14 3 -26z m-57 -179 c-2 -3 4 -14 12 -24 14 -17 14 -17 -8 -4
-12 8 -17 16 -11 18 8 2 7 7 -2 13 -11 8 -11 9 -1 6 8 -2 12 -6 10 -9z m37 2
c3 -5 2 -12 -3 -15 -5 -3 -9 1 -9 9 0 17 3 19 12 6z m-45 -63 c0 -17 -23 -3
-26 16 -2 14 0 15 12 5 8 -6 14 -16 14 -21z m17 -19 c-18 -10 -18 -12 -1 -30
14 -15 15 -22 5 -32 -10 -9 -11 -8 -6 6 4 9 3 17 -3 17 -13 0 -33 -25 -27 -33
3 -4 2 -5 -2 -2 -12 9 -12 36 0 28 6 -4 8 0 4 10 -7 17 16 47 36 47 7 0 4 -5
-6 -11z m-774 -81 c-4 -7 -8 -19 -9 -26 -2 -8 -5 -17 -8 -20 -9 -8 -2 30 7 46
5 6 10 12 13 12 3 0 2 -6 -3 -12z m777 -21 c0 -7 -4 -6 -11 3 -8 12 -9 9 -5
-12 3 -15 2 -29 -3 -33 -11 -6 -36 33 -27 43 3 3 6 -1 7 -9 0 -8 4 -4 10 9 9
23 29 22 29 -1z m-770 -43 c0 -8 -5 -12 -10 -9 -6 4 -8 11 -5 16 9 14 15 11
15 -7z m733 -49 c-3 -9 -8 -14 -10 -11 -3 3 -2 9 2 15 9 16 15 13 8 -4z m20
-67 c-4 -7 -8 -16 -8 -20 0 -16 -18 -12 -21 5 -1 9 2 15 6 12 5 -3 11 -1 15 5
3 5 8 10 11 10 3 0 2 -6 -3 -12z m-778 -28 c3 -6 -1 -7 -9 -4 -18 7 -21 14 -7
14 6 0 13 -4 16 -10z m14 -57 c-6 -7 -15 -10 -20 -7 -13 8 -3 21 15 21 12 0
13 -4 5 -14z m751 -3 c8 -15 8 -18 -3 -14 -8 3 -14 11 -14 19 0 20 4 19 17 -5z
m-770 -70 c0 -5 -8 -10 -17 -10 -14 -1 -12 -4 7 -15 30 -17 18 -20 -12 -4 -21
11 -21 12 -3 25 22 17 25 17 25 4z m743 -176 c4 -4 3 -12 0 -18 -8 -11 -13
-32 -15 -53 -2 -17 -22 -23 -39 -11 -11 8 -11 9 2 5 21 -7 43 35 27 51 -6 6
-7 15 -4 21 8 12 20 14 29 5z m-27 -109 c-24 -18 -33 -19 -42 -3 -4 7 -3 8 4
4 7 -4 20 -2 29 3 26 15 31 13 9 -4z m-23 -39 c4 -10 1 -13 -8 -9 -8 3 -12 9
-9 14 7 12 11 11 17 -5z m-760 -61 c-3 -9 -8 -14 -10 -11 -3 3 -2 9 2 15 9 16
15 13 8 -4z m787 -30 c0 -5 -5 -3 -10 5 -5 8 -10 20 -10 25 0 6 5 3 10 -5 5
-8 10 -19 10 -25z m-21 -72 c-6 -7 -15 -10 -20 -7 -13 8 -3 21 15 21 12 0 13
-4 5 -14z m-754 -22 c3 -5 2 -12 -3 -15 -5 -3 -9 1 -9 9 0 17 3 19 12 6z m-40
-100 c3 -5 2 -12 -3 -15 -5 -3 -9 1 -9 9 0 17 3 19 12 6z m34 -54 c0 -9 -2 -8
-6 1 -2 6 -10 9 -15 6 -7 -4 -8 -2 -4 5 9 13 26 5 25 -12z m718 -281 c0 -7 -6
-13 -13 -13 -7 0 -10 7 -7 14 3 8 -3 24 -13 36 -19 22 -19 22 7 -1 14 -12 26
-28 26 -36z m-22 -57 c-4 -5 -1 -9 6 -9 7 0 10 -3 6 -6 -3 -3 -15 1 -27 9 -15
11 -18 16 -8 20 17 6 30 -2 23 -14z m-784 -142 c-10 -9 -11 -8 -5 6 3 10 9 15
12 12 3 -3 0 -11 -7 -18z m-18 -132 c-3 -9 -8 -14 -10 -11 -3 3 -2 9 2 15 9
16 15 13 8 -4z m23 -30 c1 -9 -4 -11 -14 -8 -11 5 -13 3 -7 -7 6 -9 4 -11 -5
-5 -10 6 -10 11 3 20 9 7 15 15 12 18 -3 4 -2 5 2 2 4 -3 8 -12 9 -20z"/>
<path d="M56370 31959 c0 -5 5 -7 10 -4 6 3 10 8 10 11 0 2 -4 4 -10 4 -5 0
-10 -5 -10 -11z"/>
<path d="M48730 60234 c-729 -13 -4005 -68 -7280 -123 -3275 -55 -6027 -102
-6115 -105 -254 -7 -410 -46 -615 -152 -264 -137 -490 -368 -624 -640 -45 -92
-96 -238 -115 -334 -10 -47 -235 -1903 -535 -4415 -47 -390 -87 -725 -90 -743
l-5 -34 359 4 c197 1 361 6 364 9 4 3 78 604 166 1335 88 731 165 1356 171
1389 50 278 229 571 464 761 219 177 430 264 695 284 69 6 3563 46 7764 90
4201 44 7642 82 7645 85 11 11 -168 704 -308 1195 -111 392 -191 650 -332
1083 l-110 337 -87 -1 c-48 -1 -683 -12 -1412 -25z m-2122 -1019 c73 -33 153
-112 184 -182 15 -34 23 -75 26 -138 7 -148 -42 -261 -160 -370 -223 -207
-552 -170 -668 76 -114 242 53 553 341 634 82 23 201 14 277 -20z"/>
<path d="M15028 59976 c-800 -669 -1456 -1469 -1938 -2366 -426 -792 -712
-1687 -824 -2580 -45 -356 -51 -464 -51 -925 0 -447 5 -547 46 -885 250 -2090
1429 -3976 3244 -5187 1668 -1113 3718 -1565 5790 -1277 1567 218 3072 884
4279 1894 1615 1352 2622 3228 2801 5216 16 181 18 277 4 159 -84 -684 -237
-1297 -474 -1900 -336 -858 -813 -1638 -1440 -2355 -151 -172 -530 -551 -705
-704 -1396 -1224 -3070 -1914 -4935 -2036 -340 -22 -908 -11 -1285 26 -2427
234 -4596 1589 -5817 3634 -594 996 -933 2093 -1013 3278 -13 200 -13 765 1
968 125 1880 919 3613 2281 4977 103 103 186 187 185 187 -1 0 -68 -56 -149
-124z"/>
<path d="M19727 42986 c-95 -35 -116 -88 -92 -223 29 -163 10 -271 -65 -356
-17 -20 -103 -84 -191 -142 -289 -192 -565 -438 -622 -556 -71 -144 -49 -316
64 -515 73 -127 237 -287 358 -349 l33 -17 -27 37 c-40 51 -45 118 -13 165 13
19 35 40 48 47 41 21 119 16 178 -12 30 -14 56 -25 58 -25 3 0 -5 19 -17 42
-66 130 -94 278 -64 342 19 41 30 47 161 96 45 17 130 62 190 100 159 104 302
139 446 110 80 -15 110 -31 163 -86 l43 -43 100 103 c108 111 134 152 157 248
91 385 -209 889 -603 1015 -97 31 -248 41 -305 19z"/>
<path d="M16751 35728 c-121 -465 -348 -963 -634 -1393 -139 -207 -308 -428
-530 -689 l-98 -115 29 -43 c257 -375 460 -886 546 -1377 117 -664 95 -1621
-69 -3076 -19 -165 -33 -301 -31 -302 1 -2 31 9 66 23 255 103 610 105 837 3
168 -74 151 -156 -52 -254 -160 -77 -273 -103 -545 -124 -70 -5 -143 -17 -166
-26 -27 -10 -72 -48 -127 -106 l-87 -89 -25 -191 c-14 -105 -27 -212 -29 -237
-2 -26 -6 -54 -10 -62 -3 -8 -4 -24 -2 -35 2 -11 -1 -25 -5 -31 -5 -6 -10 -42
-12 -80 -1 -38 -6 -72 -12 -76 -5 -4 -6 -10 -2 -15 5 -4 11 -3 15 3 13 20 40
12 34 -10 -5 -19 -6 -19 -13 0 -6 17 -7 18 -14 2 -4 -10 -11 -15 -16 -12 -5 3
-9 -2 -9 -10 0 -9 5 -16 10 -16 6 0 10 -7 10 -16 0 -8 5 -12 10 -9 6 4 7 12 4
18 -4 8 -2 7 7 -1 12 -11 12 -14 -1 -22 -8 -5 -17 -7 -21 -4 -4 2 -9 -1 -12
-8 -2 -7 -2 -2 0 12 3 19 1 22 -7 10 -16 -24 -12 -50 8 -50 10 0 22 -12 29
-30 8 -23 8 -30 0 -30 -7 0 -6 -4 3 -10 10 -7 11 -10 3 -11 -7 -1 -17 -3 -23
-4 -5 -1 -18 -3 -27 -4 -9 0 -13 -4 -10 -8 4 -3 1 -13 -6 -21 -9 -12 -9 -16 1
-19 6 -3 12 -9 12 -14 0 -6 -5 -7 -11 -3 -7 4 -10 1 -7 -7 3 -8 12 -13 21 -11
12 2 15 -2 11 -13 -9 -22 12 -42 53 -50 40 -7 109 -49 117 -71 3 -8 16 -14 30
-14 14 0 28 -4 31 -10 3 -5 17 -10 31 -10 13 0 24 -5 24 -11 0 -20 58 -69 83
-69 14 0 30 -7 37 -15 7 -8 19 -15 26 -15 8 0 14 -4 14 -10 0 -5 6 -10 14 -10
7 0 19 -7 26 -15 7 -8 25 -15 40 -15 18 0 29 -6 32 -18 6 -20 82 -62 111 -62
9 0 17 -7 17 -15 0 -8 9 -15 20 -15 11 0 20 -4 20 -10 0 -5 7 -10 15 -10 9 0
18 -7 21 -15 4 -10 20 -15 45 -15 21 0 39 -4 39 -10 0 -18 40 -50 63 -50 18 0
19 -2 7 -10 -12 -8 -10 -10 10 -10 16 0 29 -8 35 -22 6 -14 25 -26 50 -33 48
-12 111 -49 119 -70 3 -8 16 -15 30 -15 14 0 28 -4 31 -10 3 -5 17 -10 31 -10
13 0 24 -5 24 -11 0 -20 58 -69 83 -69 14 0 30 -7 37 -15 7 -8 19 -15 26 -15
8 0 14 -4 14 -8 0 -10 71 -42 92 -42 9 0 18 -8 20 -18 6 -21 78 -62 108 -62
11 0 20 -7 20 -15 0 -8 6 -12 14 -9 8 3 19 -3 26 -15 6 -12 17 -21 25 -21 8 0
15 -9 15 -20 0 -10 8 -24 18 -29 14 -8 19 -6 19 5 0 8 -6 13 -14 10 -7 -3 -13
-1 -13 4 0 11 11 13 34 4 9 -3 13 -11 9 -18 -4 -6 2 -4 12 4 17 14 18 13 13
-2 -9 -23 2 -30 19 -13 16 17 39 19 47 6 3 -5 15 -7 25 -4 10 3 22 0 25 -5 3
-6 -2 -8 -13 -5 -10 3 -22 0 -25 -6 -10 -16 -96 -14 -96 2 0 8 -3 9 -8 1 -4
-6 -29 -11 -57 -11 -27 0 -110 -3 -182 -8 -99 -6 -133 -5 -133 3 0 7 9 12 21
12 12 0 19 5 17 13 -8 21 -35 19 -41 -3 -6 -22 -22 -25 -62 -10 -15 6 -23 15
-19 21 4 8 0 8 -15 0 -11 -7 -21 -17 -20 -24 0 -9 2 -9 6 1 6 16 20 15 26 -1
4 -10 -6 -13 -41 -9 -26 2 -55 8 -65 14 -14 7 -17 7 -13 -1 5 -7 -6 -11 -33
-11 -22 0 -42 4 -46 9 -3 6 -21 8 -40 7 -19 -2 -35 1 -35 6 0 6 6 8 14 5 17
-7 30 20 14 29 -7 5 -8 2 -3 -6 6 -10 4 -12 -8 -7 -10 3 -17 2 -17 -4 0 -6 -4
-7 -10 -4 -6 3 -7 -1 -4 -9 3 -9 1 -16 -5 -16 -6 0 -11 4 -11 8 0 5 -15 8 -32
7 -43 -3 -76 13 -57 27 12 8 11 9 -1 5 -8 -2 -14 -9 -13 -15 4 -16 -72 -5
-203 28 -126 33 -241 76 -332 126 l-63 34 5 -147 c3 -82 8 -240 11 -353 14
-538 49 -886 175 -1775 158 -1111 243 -1952 312 -3085 17 -273 17 -1308 0
-1580 -49 -788 -111 -1299 -257 -2115 -96 -535 -106 -604 -130 -904 -17 -205
-20 -727 -5 -941 88 -1269 488 -2619 1230 -4147 l108 -223 134 0 c174 0 877
20 905 25 27 6 27 9 48 695 93 3077 352 6461 741 9690 103 863 276 2165 287
2177 3 2 10 -13 17 -34 31 -97 214 -578 332 -872 411 -1029 544 -1480 627
-2131 40 -309 46 -426 46 -870 0 -676 -28 -893 -220 -1680 -178 -731 -220
-1015 -232 -1575 -29 -1386 298 -2816 967 -4226 l93 -197 76 -6 c106 -9 664
-35 791 -37 l105 -2 17 199 c150 1739 264 3788 318 5689 47 1693 47 3858 0
5545 -31 1084 -89 2410 -144 3280 l-12 205 66 65 c122 118 209 262 252 417 19
68 22 102 21 258 0 99 -5 193 -10 208 l-8 28 -73 -85 c-131 -152 -269 -260
-437 -342 -155 -75 -281 -105 -445 -105 -149 1 -184 5 -315 38 -189 49 -421
153 -880 397 -493 263 -862 389 -1275 435 -133 15 -464 5 -615 -18 -226 -34
-387 -81 -696 -201 -212 -83 -278 -105 -370 -120 -229 -40 -441 130 -539 430
-122 376 -75 1061 126 1840 155 602 307 960 642 1518 233 386 282 496 323 728
28 155 30 450 5 632 -55 401 -176 793 -378 1226 -241 517 -631 1103 -1034
1554 l-39 44 -24 -94z m-911 -8192 c0 -2 -8 -10 -17 -17 -16 -13 -17 -12 -4 4
13 16 21 21 21 13z m95 -128 c30 -13 33 -28 5 -28 -11 0 -20 5 -20 10 0 6 -6
10 -14 10 -8 0 -18 5 -21 10 -8 14 18 13 50 -2z m134 -97 c-6 -2 -18 4 -27 13
-15 15 -15 15 10 4 15 -7 23 -15 17 -17z m99 -48 c16 -16 12 -16 -22 -3 -14 5
-26 14 -26 19 0 12 30 2 48 -16z m57 -33 c3 -5 1 -10 -4 -10 -6 0 -11 5 -11
10 0 6 2 10 4 10 3 0 8 -4 11 -10z m-392 -7 c-7 -2 -13 -11 -13 -20 0 -8 -5
-13 -12 -11 -20 7 -20 26 -1 31 24 6 41 7 26 0z m460 -32 c15 -8 27 -20 27
-28 0 -19 -6 -17 -41 18 -18 18 -28 30 -23 28 5 -3 21 -11 37 -18z m-376 -57
c-3 -3 -12 -4 -19 -1 -8 3 -5 6 6 6 11 1 17 -2 13 -5z m548 -44 c3 -6 -1 -7
-9 -4 -18 7 -21 14 -7 14 6 0 13 -4 16 -10z m95 -62 c0 -13 -32 -6 -37 9 -3 7
3 9 16 6 12 -3 21 -10 21 -15z m80 -38 c0 -5 -6 -10 -14 -10 -8 0 -18 5 -21
10 -3 6 3 10 14 10 12 0 21 -4 21 -10z m255 -142 c30 -13 33 -28 5 -28 -11 0
-20 5 -20 10 0 6 -6 10 -14 10 -8 0 -18 5 -21 10 -8 14 18 13 50 -2z m-415
-44 c0 -14 -3 -14 -15 -4 -8 7 -15 14 -15 16 0 2 7 4 15 4 8 0 15 -7 15 -16z
m549 -53 c-6 -2 -18 4 -27 13 -15 15 -15 15 10 4 15 -7 23 -15 17 -17z m151
-81 c0 -5 -4 -10 -10 -10 -5 0 -10 5 -10 10 0 6 5 10 10 10 6 0 10 -4 10 -10z
m73 -39 c15 -8 27 -20 27 -28 0 -19 -6 -17 -41 18 -18 18 -28 30 -23 28 5 -3
21 -11 37 -18z m-376 -57 c-3 -3 -12 -4 -19 -1 -8 3 -5 6 6 6 11 1 17 -2 13
-5z m643 -106 c0 -13 -32 -6 -37 9 -3 7 3 9 16 6 12 -3 21 -10 21 -15z m70
-38 c13 -8 13 -10 -2 -10 -9 0 -20 5 -23 10 -8 13 5 13 25 0z m-313 -96 c-3
-3 -12 -4 -19 -1 -8 3 -5 6 6 6 11 1 17 -2 13 -5z m576 -48 c31 -7 37 -26 7
-26 -11 0 -20 4 -20 9 0 5 -9 13 -20 16 -11 3 -20 11 -20 17 0 7 4 7 13 1 6
-6 24 -13 40 -17z m-413 -36 c0 -5 -7 -7 -15 -4 -8 4 -15 8 -15 10 0 2 7 4 15
4 8 0 15 -4 15 -10z m549 -59 c-6 -2 -18 4 -27 13 -15 15 -15 15 10 4 15 -7
23 -15 17 -17z m471 -16 c0 -7 -30 -13 -34 -7 -3 4 4 9 15 9 10 1 19 0 19 -2z
m138 -28 c6 -5 12 -14 12 -20 0 -7 -5 -4 -11 6 -6 9 -14 15 -19 12 -5 -3 -11
-1 -14 4 -7 11 13 9 32 -2z m-458 -43 c0 -8 5 -12 10 -9 6 3 10 1 10 -5 0 -7
-7 -10 -15 -7 -8 4 -17 2 -20 -3 -3 -5 -14 -8 -25 -7 -18 1 -17 2 3 23 27 27
37 29 37 8z m-500 -8 c0 -2 -7 -6 -15 -10 -8 -3 -15 -1 -15 4 0 6 7 10 15 10
8 0 15 -2 15 -4z m55 -6 c3 -5 1 -10 -4 -10 -6 0 -11 5 -11 10 0 6 2 10 4 10
3 0 8 -4 11 -10z m121 -1 c3 -5 2 -9 -3 -8 -20 3 -25 -2 -14 -15 10 -12 8 -13
-9 -9 -12 3 -19 11 -16 19 3 9 0 11 -11 7 -10 -4 -14 -2 -10 4 8 13 55 14 63
2z m177 -2 c-2 -4 7 -5 21 -1 16 4 26 2 26 -5 0 -6 -3 -11 -7 -12 -44 -6 -62
-4 -60 5 1 6 -4 10 -10 9 -7 -2 -13 1 -13 6 0 5 11 8 24 7 13 0 22 -5 19 -9z
m-103 -12 c0 -9 -6 -12 -16 -8 -9 3 -20 0 -25 -8 -6 -9 -9 -10 -9 -2 0 11 27
32 43 33 4 0 7 -7 7 -15z"/>
<path d="M55956 35095 c-3 -9 -6 -24 -5 -33 0 -9 5 -4 10 12 9 32 6 48 -5 21z"/>
<path d="M55947 35003 c-4 -3 -7 -11 -7 -17 0 -6 5 -5 12 2 6 6 9 14 7 17 -3
3 -9 2 -12 -2z"/>
<path d="M55963 34933 c0 -9 4 -10 14 -2 7 6 13 12 13 14 0 1 -6 2 -13 2 -8 0
-14 -6 -14 -14z"/>
<path d="M55890 34576 c0 -8 4 -17 9 -20 5 -4 7 3 4 14 -6 23 -13 26 -13 6z"/>
<path d="M55899 34452 c-3 -20 -2 -29 4 -23 5 5 7 19 5 32 -3 20 -5 19 -9 -9z"/>
<path d="M55912 34400 c0 -14 2 -19 5 -12 2 6 2 18 0 25 -3 6 -5 1 -5 -13z"/>
<path d="M55887 34347 c-3 -8 1 -14 8 -14 7 0 11 6 8 14 -3 7 -6 13 -8 13 -2
0 -5 -6 -8 -13z"/>
<path d="M55853 34199 c-2 -23 3 -25 10 -4 4 8 3 16 -1 19 -4 3 -9 -4 -9 -15z"/>
<path d="M55826 34005 c-3 -8 -1 -15 4 -15 6 0 10 7 10 15 0 8 -2 15 -4 15 -2
0 -6 -7 -10 -15z"/>
<path d="M55810 33909 c0 -5 5 -7 10 -4 6 3 10 8 10 11 0 2 -4 4 -10 4 -5 0
-10 -5 -10 -11z"/>
<path d="M56602 33884 c-1 -13 0 -24 2 -24 7 0 14 40 7 44 -4 3 -8 -6 -9 -20z"/>
<path d="M56498 33783 c12 -2 32 -2 45 0 12 2 2 4 -23 4 -25 0 -35 -2 -22 -4z"/>
<path d="M55819 33763 c-13 -16 -12 -17 4 -4 16 13 21 21 13 21 -2 0 -10 -8
-17 -17z"/>
<path d="M56080 33650 c0 -5 -18 -10 -40 -10 -22 0 -40 -4 -40 -10 0 -5 18
-10 40 -10 22 0 40 5 40 10 0 6 18 10 40 10 22 0 40 5 40 10 0 6 -18 10 -40
10 -22 0 -40 -4 -40 -10z"/>
<path d="M55796 33623 c-6 -14 -5 -15 5 -6 7 7 10 15 7 18 -3 3 -9 -2 -12 -12z"/>
<path d="M55805 33560 c4 -6 11 -8 16 -5 14 9 11 15 -7 15 -8 0 -12 -5 -9 -10z"/>
<path d="M55779 33533 c0 -5 -2 -18 -5 -30 -2 -12 0 -24 4 -27 5 -3 9 0 9 7 0
7 3 22 7 35 5 13 3 22 -3 22 -6 0 -11 -3 -12 -7z"/>
<path d="M55822 33515 c0 -16 2 -22 5 -12 2 9 2 23 0 30 -3 6 -5 -1 -5 -18z"/>
<path d="M55806 33475 c4 -8 11 -15 16 -15 6 0 5 6 -2 15 -7 8 -14 15 -16 15
-2 0 -1 -7 2 -15z"/>
<path d="M55751 33394 c0 -11 3 -14 6 -6 3 7 2 16 -1 19 -3 4 -6 -2 -5 -13z"/>
<path d="M55746 33328 c-8 -31 -8 -83 1 -75 7 7 15 97 9 97 -2 0 -6 -10 -10
-22z"/>
<path d="M55737 33233 c-11 -10 -8 -35 3 -28 6 3 10 -2 10 -11 0 -10 3 -15 6
-11 4 3 3 14 -1 24 -5 10 -7 21 -7 26 2 9 -3 9 -11 0z"/>
<path d="M55723 33125 c0 -8 4 -12 9 -9 4 3 8 9 8 15 0 5 -4 9 -8 9 -5 0 -9
-7 -9 -15z"/>
<path d="M55728 33093 c-19 -22 -21 -58 -2 -42 8 7 14 7 19 -1 3 -5 1 -10 -5
-10 -6 0 -8 -5 -5 -11 10 -15 16 -6 20 30 2 17 -1 31 -6 31 -6 0 -7 5 -4 10
10 16 -1 11 -17 -7z"/>
<path d="M55700 32970 c0 -11 2 -20 4 -20 2 0 6 9 9 20 3 11 1 20 -4 20 -5 0
-9 -9 -9 -20z"/>
<path d="M55720 32934 c0 -2 9 -8 20 -14 15 -8 18 -8 14 3 -4 11 -34 21 -34
11z"/>
<path d="M15779 27303 c0 -5 -2 -18 -5 -30 -5 -28 10 -38 29 -18 18 17 11 55
-9 55 -8 0 -14 -3 -15 -7z m26 -22 c3 -5 2 -12 -3 -15 -5 -3 -9 1 -9 9 0 17 3
19 12 6z"/>
<path d="M15753 26945 c0 -27 2 -38 4 -22 2 15 2 37 0 50 -2 12 -4 0 -4 -28z"/>
<path d="M15787 26802 c12 -12 16 -13 23 -2 6 9 10 7 15 -9 3 -11 3 -26 -1
-32 -4 -7 -3 -9 4 -5 6 3 10 19 10 34 -1 24 -5 27 -34 28 -29 1 -30 -1 -17
-14z"/>
<path d="M15785 26730 c-3 -5 -1 -10 4 -10 6 0 11 5 11 10 0 6 -2 10 -4 10 -3
0 -8 -4 -11 -10z"/>
<path d="M15814 26723 c2 -10 6 -17 10 -16 15 3 16 11 2 22 -12 10 -14 9 -12
-6z"/>
<path d="M16000 26720 c0 -15 7 -20 25 -20 23 0 24 2 15 20 -6 11 -17 20 -25
20 -8 0 -15 -9 -15 -20z"/>
<path d="M15815 26648 c1 -13 6 -21 11 -19 10 3 7 21 -5 34 -4 4 -7 -3 -6 -15z"/>
<path d="M16080 26650 c0 -5 12 -10 26 -10 14 0 23 4 19 10 -3 6 -15 10 -26
10 -10 0 -19 -4 -19 -10z"/>
<path d="M16168 26623 c7 -3 16 -2 19 1 4 3 -2 6 -13 5 -11 0 -14 -3 -6 -6z"/>
<path d="M16240 26570 c0 -5 18 -10 40 -10 22 0 40 5 40 10 0 6 -18 10 -40 10
-22 0 -40 -4 -40 -10z"/>
<path d="M16568 26383 c7 -3 16 -2 19 1 4 3 -2 6 -13 5 -11 0 -14 -3 -6 -6z"/>
<path d="M16640 26330 c0 -5 12 -10 26 -10 14 0 23 4 19 10 -3 6 -15 10 -26
10 -10 0 -19 -4 -19 -10z"/>
<path d="M16960 26160 c0 -15 7 -20 25 -20 23 0 24 2 15 20 -6 11 -17 20 -25
20 -8 0 -15 -9 -15 -20z"/>
<path d="M16961 26078 c8 -15 5 -18 -18 -19 -26 -2 -27 -2 -4 -6 15 -3 29 1
35 9 6 8 19 19 29 25 16 8 13 10 -16 9 -30 -1 -34 -3 -26 -18z"/>
<path d="M17038 26093 c7 -3 16 -2 19 1 4 3 -2 6 -13 5 -11 0 -14 -3 -6 -6z"/>
<path d="M17163 26093 c9 -2 23 -2 30 0 6 3 -1 5 -18 5 -16 0 -22 -2 -12 -5z"/>
<path d="M17323 26093 c-54 -5 -57 -23 -4 -23 22 0 41 -5 43 -11 2 -6 13 -9
23 -6 19 5 19 5 -2 12 -33 10 -28 23 10 28 31 4 31 4 2 4 -16 0 -49 -2 -72 -4z"/>
<path d="M17030 26076 c0 -2 7 -7 16 -10 8 -3 12 -2 9 4 -6 10 -25 14 -25 6z"/>
<path d="M17453 26073 c9 -2 23 -2 30 0 6 3 -1 5 -18 5 -16 0 -22 -2 -12 -5z"/>
<path d="M17646 26062 c-3 -5 1 -9 9 -9 8 0 12 4 9 9 -3 4 -7 8 -9 8 -2 0 -6
-4 -9 -8z"/>
</g>
</svg>
